<?xml version="1.0" encoding="UTF-8" standalone="no"?>
<!DOCTYPE svg PUBLIC "-//W3C//DTD SVG 1.1//EN" "http://www.w3.org/Graphics/SVG/1.1/DTD/svg11.dtd">
<svg width="100%" height="100%" viewBox="0 0 576 512" version="1.1" xmlns="http://www.w3.org/2000/svg" xmlns:xlink="http://www.w3.org/1999/xlink" xml:space="preserve" xmlns:serif="http://www.serif.com/" style="fill-rule:evenodd;clip-rule:evenodd;stroke-linejoin:round;stroke-miterlimit:2;">
    <path d="M407.8,294.7C404.5,294.3 401.1,293.9 397.8,293.4C401.2,293.8 404.5,294.3 407.8,294.7ZM288,227.1C261.9,176.4 190.9,81.9 124.9,35.3C61.6,-9.4 37.5,-1.7 21.6,5.5C3.3,13.8 0,41.9 0,58.4C0,74.9 9.1,194 15,213.9C34.5,279.6 104.1,301.8 168.2,294.6C171.5,294.1 174.8,293.7 178.2,293.2C174.9,293.7 171.6,294.2 168.2,294.6C74.3,308.6 -9.1,342.8 100.3,464.5C220.6,589.1 265.1,437.8 288,361.1C310.9,437.8 337.2,583.6 473.6,464.5C576,361.1 501.7,308.5 407.8,294.6C404.5,294.2 401.1,293.8 397.8,293.3C401.2,293.7 404.5,294.2 407.8,294.6C471.9,301.7 541.4,279.5 561,213.9C566.9,194 576,75 576,58.4C576,41.8 572.7,13.7 554.4,5.5C538.6,-1.6 514.4,-9.4 451.2,35.3C385.1,81.9 314.1,176.4 288,227.1Z" style="fill:rgb(73,122,255);fill-rule:nonzero;"/>
    <g id="レイヤー1">
    </g>
</svg>
